<svg width="18" height="10" viewBox="0 0 18 10" fill="none" xmlns="http://www.w3.org/2000/svg">
<path d="M16.4977 0.988801L9.00072 8.2968L1.50372 0.988801C1.36978 0.857957 1.18997 0.784703 1.00272 0.784703C0.81548 0.784703 0.635666 0.857957 0.501725 0.988801C0.436868 1.05235 0.385343 1.1282 0.350168 1.21191C0.314993 1.29561 0.296875 1.3855 0.296875 1.4763C0.296875 1.5671 0.314993 1.65699 0.350168 1.7407C0.385343 1.82441 0.436868 1.90025 0.501725 1.9638L8.47722 9.7398C8.61729 9.87632 8.80514 9.95273 9.00072 9.95273C9.19631 9.95273 9.38416 9.87632 9.52423 9.7398L17.4997 1.9653C17.565 1.90171 17.617 1.82567 17.6524 1.74169C17.6878 1.6577 17.7061 1.56746 17.7061 1.4763C17.7061 1.38514 17.6878 1.2949 17.6524 1.21092C17.617 1.12693 17.565 1.05089 17.4997 0.987301C17.3658 0.856456 17.186 0.783203 16.9987 0.783203C16.8115 0.783203 16.6317 0.856456 16.4977 0.987301V0.988801Z" fill="#A8ADB7"/>
</svg>
